<svg width="28" height="28" viewBox="0 0 28 28" fill="none" xmlns="http://www.w3.org/2000/svg">
<path d="M9.33329 25.6667C9.97762 25.6667 10.5 25.1444 10.5 24.5C10.5 23.8557 9.97762 23.3334 9.33329 23.3334C8.68896 23.3334 8.16663 23.8557 8.16663 24.5C8.16663 25.1444 8.68896 25.6667 9.33329 25.6667Z" stroke="black" stroke-width="2" stroke-linecap="round" stroke-linejoin="round"/>
<path d="M22.1667 25.6667C22.811 25.6667 23.3333 25.1444 23.3333 24.5C23.3333 23.8557 22.811 23.3334 22.1667 23.3334C21.5223 23.3334 21 23.8557 21 24.5C21 25.1444 21.5223 25.6667 22.1667 25.6667Z" stroke="black" stroke-width="2" stroke-linecap="round" stroke-linejoin="round"/>
<path d="M2.39172 2.39172H4.72506L7.82839 16.8817C7.94223 17.4124 8.23751 17.8868 8.66339 18.2232C9.08927 18.5597 9.61911 18.7371 10.1617 18.7251H21.5717C22.1028 18.7242 22.6176 18.5422 23.0313 18.2092C23.4449 17.8762 23.7326 17.412 23.8467 16.8934L25.7717 8.22506H5.97339" stroke="black" stroke-width="2" stroke-linecap="round" stroke-linejoin="round"/>
</svg>
