<svg width="28" height="28" viewBox="0 0 28 28" fill="none" xmlns="http://www.w3.org/2000/svg">
<path d="M9.33317 25.6668C9.9775 25.6668 10.4998 25.1445 10.4998 24.5002C10.4998 23.8558 9.9775 23.3335 9.33317 23.3335C8.68884 23.3335 8.1665 23.8558 8.1665 24.5002C8.1665 25.1445 8.68884 25.6668 9.33317 25.6668Z" stroke="#102C57" stroke-width="2" stroke-linecap="round" stroke-linejoin="round"/>
<path d="M22.1667 25.6668C22.811 25.6668 23.3333 25.1445 23.3333 24.5002C23.3333 23.8558 22.811 23.3335 22.1667 23.3335C21.5223 23.3335 21 23.8558 21 24.5002C21 25.1445 21.5223 25.6668 22.1667 25.6668Z" stroke="#102C57" stroke-width="2" stroke-linecap="round" stroke-linejoin="round"/>
<path d="M2.3916 2.3916H4.72494L7.82827 16.8816C7.94211 17.4123 8.23738 17.8867 8.66326 18.2231C9.08915 18.5595 9.61899 18.737 10.1616 18.7249H21.5716C22.1026 18.7241 22.6175 18.5421 23.0311 18.2091C23.4448 17.876 23.7324 17.4119 23.8466 16.8933L25.7716 8.22493H5.97327" fill="#102C57"/>
<path d="M2.3916 2.3916H4.72494L7.82827 16.8816C7.94211 17.4123 8.23738 17.8867 8.66326 18.2231C9.08915 18.5595 9.61899 18.737 10.1616 18.7249H21.5716C22.1026 18.7241 22.6175 18.5421 23.0311 18.2091C23.4448 17.876 23.7324 17.4119 23.8466 16.8933L25.7716 8.22493H5.97327" stroke="#102C57" stroke-width="2" stroke-linecap="round" stroke-linejoin="round"/>
</svg>
