<svg width="24" height="24" viewBox="0 0 24 24" fill="none" xmlns="http://www.w3.org/2000/svg">
<path d="M12.0005 2.21875C13.1331 2.21888 14.2192 2.66888 15.02 3.46973C15.821 4.27069 16.271 5.35749 16.271 6.49023C16.2709 7.05091 16.1603 7.60602 15.9458 8.12402C15.7312 8.64221 15.4166 9.11317 15.02 9.50977C14.6234 9.90636 14.1525 10.2209 13.6343 10.4355C13.1163 10.6501 12.5612 10.7607 12.0005 10.7607C11.4396 10.7607 10.8839 10.6502 10.3657 10.4355C9.84754 10.2209 9.37658 9.90636 8.97998 9.50977C8.58338 9.11317 8.26884 8.6422 8.0542 8.12402C7.83965 7.60602 7.72907 7.05091 7.729 6.49023L7.73389 6.27832C7.78617 5.22255 8.22898 4.22072 8.97998 3.46973C9.78095 2.66876 10.8677 2.21875 12.0005 2.21875Z" stroke="black" stroke-width="2"/>
<path d="M11.9995 14.1973C14.1482 14.1998 16.2077 15.0549 17.7271 16.5742C19.123 17.9701 19.9561 19.8221 20.0845 21.7803H3.91553C4.0439 19.8221 4.87702 17.9701 6.27295 16.5742C7.79207 15.0551 9.8512 14.2 11.9995 14.1973Z" stroke="black" stroke-width="2"/>
</svg>
