<svg width="24" height="24" viewBox="0 0 24 24" fill="none" xmlns="http://www.w3.org/2000/svg">
<g clip-path="url(#clip0_1607_238)">
<path d="M19.734 6.76801C19.7726 6.79278 19.8176 6.80594 19.8635 6.80594C19.9094 6.80594 19.9543 6.79278 19.993 6.76801C20.0392 6.7533 20.0792 6.72377 20.1068 6.68399C20.1345 6.64421 20.1483 6.59641 20.146 6.54801V1.92801C20.1436 1.80254 20.0921 1.683 20.0025 1.59511C19.913 1.50721 19.7925 1.45799 19.667 1.45801H16.313C16.1859 1.45801 16.0641 1.50847 15.9743 1.5983C15.8845 1.68813 15.834 1.80997 15.834 1.93701V2.50201C15.8352 2.6265 15.883 2.74602 15.968 2.83701L19.734 6.76801Z" fill="#102C57"/>
<path d="M23.232 11.8076L12.69 0.786586C12.6006 0.693794 12.4934 0.619983 12.3749 0.569566C12.2563 0.51915 12.1288 0.493164 12 0.493164C11.8711 0.493164 11.7436 0.51915 11.6251 0.569566C11.5065 0.619983 11.3993 0.693794 11.31 0.786586L0.767963 11.8076C0.636412 11.9434 0.547985 12.1151 0.513819 12.301C0.479653 12.487 0.501275 12.6789 0.575963 12.8526C0.650765 13.0241 0.774151 13.1699 0.93089 13.2721C1.08763 13.3743 1.27086 13.4283 1.45796 13.4276H2.89596C2.95972 13.4276 3.02283 13.4403 3.08161 13.465C3.14038 13.4897 3.19364 13.5259 3.23825 13.5714C3.28287 13.6169 3.31794 13.6709 3.34141 13.7302C3.36489 13.7895 3.37629 13.8528 3.37496 13.9166V22.0626C3.37523 22.4438 3.52685 22.8093 3.7965 23.0788C4.06615 23.3482 4.43176 23.4996 4.81296 23.4996H9.12496C9.37904 23.4996 9.62271 23.3987 9.80237 23.219C9.98203 23.0393 10.083 22.7957 10.083 22.5416V18.7086C10.0944 18.2079 10.3013 17.7315 10.6595 17.3815C11.0177 17.0314 11.4986 16.8354 11.9995 16.8354C12.5003 16.8354 12.9813 17.0314 13.3394 17.3815C13.6976 17.7315 13.9045 18.2079 13.916 18.7086V22.5416C13.916 22.7957 14.0169 23.0393 14.1966 23.219C14.3762 23.3987 14.6199 23.4996 14.874 23.4996H19.187C19.5683 23.4996 19.9341 23.3481 20.2038 23.0784C20.4735 22.8087 20.625 22.443 20.625 22.0616V13.9166C20.625 13.7895 20.6754 13.6677 20.7653 13.5779C20.8551 13.4881 20.9769 13.4376 21.104 13.4376H22.542C22.7291 13.4383 22.9123 13.3843 23.069 13.2821C23.2258 13.1799 23.3492 13.0341 23.424 12.8626C23.5006 12.6878 23.5233 12.494 23.4891 12.3062C23.4549 12.1184 23.3653 11.9452 23.232 11.8086V11.8076Z" fill="#102C57"/>
</g>
<defs>
<clipPath id="clip0_1607_238">
<rect width="24" height="24" fill="white"/>
</clipPath>
</defs>
</svg>
